<svg width="147" height="24" viewBox="0 0 147 24" fill="none" xmlns="http://www.w3.org/2000/svg">
<path d="M0.61 24C0.31 24 0.16 23.85 0.16 23.55V0.455997C0.16 0.155997 0.31 0.00599694 0.61 0.00599694H10.564C10.852 0.00599694 11.092 0.101997 11.284 0.293998L14.884 3.894C15.088 4.098 15.19 4.338 15.19 4.614V10.824C15.19 11.112 15.088 11.352 14.884 11.544L11.284 15.144C11.092 15.348 10.852 15.45 10.564 15.45H6.154V23.55C6.154 23.85 6.004 24 5.704 24H0.61ZM7.504 10.554C8.5 10.554 9.178 10.356 9.538 9.96C9.91 9.564 10.096 8.814 10.096 7.71C10.096 6.606 9.91 5.856 9.538 5.46C9.178 5.064 8.5 4.866 7.504 4.866C6.52 4.866 5.842 5.064 5.47 5.46C5.11 5.856 4.93 6.606 4.93 7.71C4.93 8.814 5.11 9.564 5.47 9.96C5.842 10.356 6.52 10.554 7.504 10.554ZM26.1537 24C26.0337 24 25.9017 23.982 25.7577 23.946C25.6257 23.91 25.4997 23.88 25.3797 23.856L22.1757 23.064L18.5037 21.84C18.1437 21.72 17.9637 21.372 17.9637 20.796V8.826C17.9637 8.538 18.0657 8.298 18.2697 8.106L21.8697 4.506C22.0737 4.302 22.3137 4.2 22.5897 4.2H28.3497C28.6257 4.2 28.8657 4.302 29.0697 4.506L32.6697 8.106C32.8737 8.298 32.9757 8.538 32.9757 8.826V16.206H23.3097L23.1837 18.6L25.7397 19.446L30.3297 19.77C30.5337 19.806 30.6357 19.944 30.6357 20.184V23.55C30.6357 23.85 30.4857 24 30.1857 24H26.1537ZM25.4337 13.38H25.7757C26.3637 13.38 26.8317 13.158 27.1797 12.714C27.5397 12.27 27.7197 11.67 27.7197 10.914V10.554C27.7197 9.81 27.5397 9.216 27.1797 8.772C26.8317 8.328 26.3637 8.106 25.7757 8.106H25.4157C24.8397 8.106 24.3777 8.328 24.0297 8.772C23.6937 9.216 23.5257 9.81 23.5257 10.554V10.914C23.5257 11.67 23.6937 12.27 24.0297 12.714C24.3777 13.158 24.8457 13.38 25.4337 13.38ZM40.8625 24C40.5865 24 40.3465 23.898 40.1425 23.694L37.1365 20.706C36.9445 20.502 36.8485 20.262 36.8485 19.986V8.394H36.0925C35.7925 8.394 35.6425 8.244 35.6425 7.944V4.65C35.6425 4.35 35.7925 4.2 36.0925 4.2H36.8485V1.95C36.8485 1.65 36.9985 1.5 37.2985 1.5H42.0865C42.3865 1.5 42.5365 1.65 42.5365 1.95V4.2H44.2825C44.5825 4.2 44.7325 4.35 44.7325 4.65V7.944C44.7325 8.244 44.5825 8.394 44.2825 8.394H42.5365V18.006C42.5365 18.234 42.6085 18.42 42.7525 18.564L44.5165 20.346C44.6365 20.454 44.6965 20.634 44.6965 20.886V23.55C44.6965 23.85 44.5465 24 44.2465 24H40.8625ZM54.153 24C53.853 24 53.703 23.85 53.703 23.55V0.455997C53.703 0.155997 53.853 0.00599694 54.153 0.00599694H64.107C64.395 0.00599694 64.635 0.101997 64.827 0.293998L68.427 3.894C68.631 4.098 68.733 4.338 68.733 4.614V10.824C68.733 11.112 68.631 11.352 68.427 11.544L64.827 15.144C64.635 15.348 64.395 15.45 64.107 15.45H59.697V23.55C59.697 23.85 59.547 24 59.247 24H54.153ZM61.047 10.554C62.043 10.554 62.721 10.356 63.081 9.96C63.453 9.564 63.639 8.814 63.639 7.71C63.639 6.606 63.453 5.856 63.081 5.46C62.721 5.064 62.043 4.866 61.047 4.866C60.063 4.866 59.385 5.064 59.013 5.46C58.653 5.856 58.473 6.606 58.473 7.71C58.473 8.814 58.653 9.564 59.013 9.96C59.385 10.356 60.063 10.554 61.047 10.554ZM76.1327 24C75.8567 24 75.6167 23.898 75.4127 23.694L71.8127 20.094C71.6087 19.902 71.5067 19.662 71.5067 19.374V8.826C71.5067 8.538 71.6087 8.298 71.8127 8.106L75.4127 4.506C75.6167 4.302 75.8567 4.2 76.1327 4.2H85.7627C86.0627 4.2 86.2127 4.35 86.2127 4.65V23.55C86.2127 23.85 86.0627 24 85.7627 24H82.0187C81.8627 24 81.7427 23.97 81.6587 23.91C81.5867 23.85 81.5027 23.778 81.4067 23.694L80.5067 22.794L79.6067 23.694C79.4147 23.898 79.1747 24 78.8867 24H76.1327ZM78.2387 19.806H79.4987C79.8827 19.806 80.1467 19.728 80.2907 19.572C80.4347 19.416 80.5067 19.14 80.5067 18.744V8.394H78.2387C77.8427 8.394 77.5727 8.472 77.4287 8.628C77.2847 8.784 77.2127 9.06 77.2127 9.456V18.744C77.2127 19.14 77.2847 19.416 77.4287 19.572C77.5727 19.728 77.8427 19.806 78.2387 19.806ZM90.6401 24C90.3401 24 90.1901 23.85 90.1901 23.55V0.455997C90.1901 0.155997 90.3401 0.00599694 90.6401 0.00599694H95.4461C95.7461 0.00599694 95.8961 0.155997 95.8961 0.455997V23.55C95.8961 23.85 95.7461 24 95.4461 24H90.6401ZM104.363 24C104.087 24 103.847 23.898 103.643 23.694L100.043 20.094C99.8391 19.902 99.7371 19.662 99.7371 19.374V8.826C99.7371 8.538 99.8391 8.298 100.043 8.106L103.643 4.506C103.847 4.302 104.087 4.2 104.363 4.2H113.993C114.293 4.2 114.443 4.35 114.443 4.65V23.55C114.443 23.85 114.293 24 113.993 24H110.249C110.093 24 109.973 23.97 109.889 23.91C109.817 23.85 109.733 23.778 109.637 23.694L108.737 22.794L107.837 23.694C107.645 23.898 107.405 24 107.117 24H104.363ZM106.469 19.806H107.729C108.113 19.806 108.377 19.728 108.521 19.572C108.665 19.416 108.737 19.14 108.737 18.744V8.394H106.469C106.073 8.394 105.803 8.472 105.659 8.628C105.515 8.784 105.443 9.06 105.443 9.456V18.744C105.443 19.14 105.515 19.416 105.659 19.572C105.803 19.728 106.073 19.806 106.469 19.806ZM124.487 24C124.247 24 124.007 23.922 123.767 23.766L120.833 21.786L118.817 18.546C118.733 18.39 118.661 18.288 118.601 18.24C118.541 18.18 118.511 18.06 118.511 17.88V10.32C118.511 10.14 118.535 10.02 118.583 9.96C118.631 9.9 118.709 9.792 118.817 9.636L120.653 6.576L123.767 4.434C123.875 4.362 123.983 4.308 124.091 4.272C124.199 4.224 124.331 4.2 124.487 4.2H127.601C127.901 4.2 128.051 4.35 128.051 4.65V8.016C128.051 8.112 128.039 8.214 128.015 8.322C128.003 8.43 127.949 8.514 127.853 8.574L125.801 9.6L124.217 11.67V16.476L125.891 18.384L127.853 19.626C127.973 19.698 128.033 19.788 128.033 19.896C128.045 19.992 128.051 20.088 128.051 20.184V23.55C128.051 23.85 127.901 24 127.601 24H124.487ZM139.708 24C139.588 24 139.456 23.982 139.312 23.946C139.18 23.91 139.054 23.88 138.934 23.856L135.73 23.064L132.058 21.84C131.698 21.72 131.518 21.372 131.518 20.796V8.826C131.518 8.538 131.62 8.298 131.824 8.106L135.424 4.506C135.628 4.302 135.868 4.2 136.144 4.2H141.904C142.18 4.2 142.42 4.302 142.624 4.506L146.224 8.106C146.428 8.298 146.53 8.538 146.53 8.826V16.206H136.864L136.738 18.6L139.294 19.446L143.884 19.77C144.088 19.806 144.19 19.944 144.19 20.184V23.55C144.19 23.85 144.04 24 143.74 24H139.708ZM138.988 13.38H139.33C139.918 13.38 140.386 13.158 140.734 12.714C141.094 12.27 141.274 11.67 141.274 10.914V10.554C141.274 9.81 141.094 9.216 140.734 8.772C140.386 8.328 139.918 8.106 139.33 8.106H138.97C138.394 8.106 137.932 8.328 137.584 8.772C137.248 9.216 137.08 9.81 137.08 10.554V10.914C137.08 11.67 137.248 12.27 137.584 12.714C137.932 13.158 138.4 13.38 138.988 13.38Z" fill="black"/>
</svg>
